<svg width="40" height="40" viewBox="0 0 40 40" fill="none" xmlns="http://www.w3.org/2000/svg">
<path d="M16.6667 25L25.3167 20L16.6667 15V25ZM35.9333 11.95C36.15 12.7333 36.3 13.7833 36.4 15.1167C36.5167 16.45 36.5667 17.6 36.5667 18.6L36.6667 20C36.6667 23.65 36.4 26.3333 35.9333 28.05C35.5167 29.55 34.55 30.5167 33.05 30.9333C32.2667 31.15 30.8333 31.3 28.6333 31.4C26.4667 31.5167 24.4833 31.5667 22.65 31.5667L20 31.6667C13.0167 31.6667 8.66668 31.4 6.95001 30.9333C5.45001 30.5167 4.48334 29.55 4.06668 28.05C3.85001 27.2667 3.70001 26.2167 3.60001 24.8833C3.48334 23.55 3.43334 22.4 3.43334 21.4L3.33334 20C3.33334 16.35 3.60001 13.6667 4.06668 11.95C4.48334 10.45 5.45001 9.48333 6.95001 9.06666C7.73334 8.85 9.16668 8.69999 11.3667 8.59999C13.5333 8.48333 15.5167 8.43333 17.35 8.43333L20 8.33333C26.9833 8.33333 31.3333 8.6 33.05 9.06666C34.55 9.48333 35.5167 10.45 35.9333 11.95Z" fill="white"/>
</svg>
