<svg width="27" height="27" viewBox="0 0 27 27" fill="none" xmlns="http://www.w3.org/2000/svg">
<mask id="path-1-inside-1_8_4" fill="white">
<path d="M10.449 4.69121C9.67612 3.54877 8.88468 2.58521 8.17087 1.91864C7.81623 1.57182 7.41254 1.27901 6.97275 1.04958C6.60656 0.87408 6.02775 0.703643 5.48437 1.01583C4.86506 1.37527 4.76381 2.07896 4.75875 2.52783C4.75368 3.04083 4.86675 3.64833 5.05068 4.28958C5.38143 5.44889 5.98893 6.86808 6.79725 8.34296L1.269 13.8712C0.801559 14.3386 0.815059 14.9782 0.901122 15.4203C0.993934 15.8979 1.21668 16.421 1.50862 16.9441C2.09587 18.0022 3.06112 19.2408 4.2525 20.4339C5.44556 21.627 6.68418 22.5905 7.74225 23.1778C8.26537 23.4697 8.7885 23.6925 9.26606 23.7853C9.70818 23.8696 10.3461 23.8848 10.8152 23.4174L20.2905 13.9421C20.4896 14.3758 20.4457 14.8061 20.3749 15.5266C20.3242 16.0194 20.2601 16.6488 20.2517 17.5111V17.7187H20.2567C20.2921 18.1404 20.4846 18.5333 20.7961 18.8198C21.1075 19.1062 21.5152 19.2651 21.9383 19.2651C22.3615 19.2651 22.7692 19.1062 23.0806 18.8198C23.3921 18.5333 23.5846 18.1404 23.6199 17.7187H23.625V17.6225C23.6266 17.5566 23.6243 17.4907 23.6182 17.4251C23.5254 15.3157 22.437 12.8047 20.4795 11.529C20.3757 11.2779 20.2568 11.0333 20.1234 10.7966C19.5345 9.7402 18.5709 8.50158 17.3779 7.30852C16.1848 6.11546 14.9462 5.15021 13.8881 4.56296C13.365 4.27271 12.8419 4.04996 12.3643 3.95546C11.9222 3.87108 11.2843 3.85758 10.8152 4.32502L10.449 4.69121ZM7.02 3.15052C7.66293 3.75127 8.44425 4.70639 9.23231 5.90452L8.04431 7.09421C7.39968 5.86739 6.93056 4.72833 6.67237 3.82383C6.55945 3.45397 6.48536 3.07335 6.45131 2.68814C6.60543 2.78939 6.795 2.94352 7.02 3.15052ZM7.68487 9.84146C8.59612 11.2792 9.55293 12.4858 10.3967 13.2721C10.4778 13.3477 10.573 13.4066 10.6768 13.4453C10.7807 13.4841 10.8912 13.5021 11.002 13.4981C11.1127 13.4942 11.2217 13.4685 11.3225 13.4225C11.4234 13.3765 11.5142 13.3111 11.5897 13.23C11.6653 13.1488 11.7242 13.0536 11.7629 12.9498C11.8017 12.8459 11.8197 12.7355 11.8157 12.6247C11.8118 12.5139 11.7861 12.405 11.7401 12.3041C11.6941 12.2033 11.6287 12.1125 11.5476 12.0369C10.7831 11.3248 9.83137 10.1199 8.90831 8.61633L10.7443 6.78033C10.8354 6.98396 10.9384 7.18927 11.0531 7.39627C11.6421 8.45433 12.6056 9.69296 13.7987 10.886C14.9901 12.0791 16.2287 13.0426 17.2884 13.6299C17.4943 13.7458 17.6996 13.8487 17.9044 13.9387L9.70143 22.1433L9.58668 22.1265C9.3555 22.0809 9.00956 21.951 8.56068 21.7012C7.67643 21.2085 6.55931 20.3512 5.44556 19.2375C4.33181 18.1237 3.47456 17.01 2.98181 16.1223C2.73375 15.6751 2.60212 15.3292 2.55825 15.098L2.54137 14.9833L7.68487 9.84146ZM12.528 6.57614C12.3527 6.27918 12.216 5.96105 12.1213 5.62946C12.3491 5.68514 12.6681 5.81508 13.0697 6.03614C13.9539 6.52889 15.0711 7.38614 16.1848 8.49989C16.9442 9.25927 17.5854 10.0203 18.0714 10.7105C17.4675 10.6692 16.8608 10.721 16.2726 10.8641C15.827 10.4939 15.3991 10.1031 14.9901 9.69296C13.8763 8.57921 13.0207 7.46208 12.5297 6.57614H12.528Z"/>
</mask>
<path d="M10.449 4.69121C9.67612 3.54877 8.88468 2.58521 8.17087 1.91864C7.81623 1.57182 7.41254 1.27901 6.97275 1.04958C6.60656 0.87408 6.02775 0.703643 5.48437 1.01583C4.86506 1.37527 4.76381 2.07896 4.75875 2.52783C4.75368 3.04083 4.86675 3.64833 5.05068 4.28958C5.38143 5.44889 5.98893 6.86808 6.79725 8.34296L1.269 13.8712C0.801559 14.3386 0.815059 14.9782 0.901122 15.4203C0.993934 15.8979 1.21668 16.421 1.50862 16.9441C2.09587 18.0022 3.06112 19.2408 4.2525 20.4339C5.44556 21.627 6.68418 22.5905 7.74225 23.1778C8.26537 23.4697 8.7885 23.6925 9.26606 23.7853C9.70818 23.8696 10.3461 23.8848 10.8152 23.4174L20.2905 13.9421C20.4896 14.3758 20.4457 14.8061 20.3749 15.5266C20.3242 16.0194 20.2601 16.6488 20.2517 17.5111V17.7187H20.2567C20.2921 18.1404 20.4846 18.5333 20.7961 18.8198C21.1075 19.1062 21.5152 19.2651 21.9383 19.2651C22.3615 19.2651 22.7692 19.1062 23.0806 18.8198C23.3921 18.5333 23.5846 18.1404 23.6199 17.7187H23.625V17.6225C23.6266 17.5566 23.6243 17.4907 23.6182 17.4251C23.5254 15.3157 22.437 12.8047 20.4795 11.529C20.3757 11.2779 20.2568 11.0333 20.1234 10.7966C19.5345 9.7402 18.5709 8.50158 17.3779 7.30852C16.1848 6.11546 14.9462 5.15021 13.8881 4.56296C13.365 4.27271 12.8419 4.04996 12.3643 3.95546C11.9222 3.87108 11.2843 3.85758 10.8152 4.32502L10.449 4.69121ZM7.02 3.15052C7.66293 3.75127 8.44425 4.70639 9.23231 5.90452L8.04431 7.09421C7.39968 5.86739 6.93056 4.72833 6.67237 3.82383C6.55945 3.45397 6.48536 3.07335 6.45131 2.68814C6.60543 2.78939 6.795 2.94352 7.02 3.15052ZM7.68487 9.84146C8.59612 11.2792 9.55293 12.4858 10.3967 13.2721C10.4778 13.3477 10.573 13.4066 10.6768 13.4453C10.7807 13.4841 10.8912 13.5021 11.002 13.4981C11.1127 13.4942 11.2217 13.4685 11.3225 13.4225C11.4234 13.3765 11.5142 13.3111 11.5897 13.23C11.6653 13.1488 11.7242 13.0536 11.7629 12.9498C11.8017 12.8459 11.8197 12.7355 11.8157 12.6247C11.8118 12.5139 11.7861 12.405 11.7401 12.3041C11.6941 12.2033 11.6287 12.1125 11.5476 12.0369C10.7831 11.3248 9.83137 10.1199 8.90831 8.61633L10.7443 6.78033C10.8354 6.98396 10.9384 7.18927 11.0531 7.39627C11.6421 8.45433 12.6056 9.69296 13.7987 10.886C14.9901 12.0791 16.2287 13.0426 17.2884 13.6299C17.4943 13.7458 17.6996 13.8487 17.9044 13.9387L9.70143 22.1433L9.58668 22.1265C9.3555 22.0809 9.00956 21.951 8.56068 21.7012C7.67643 21.2085 6.55931 20.3512 5.44556 19.2375C4.33181 18.1237 3.47456 17.01 2.98181 16.1223C2.73375 15.6751 2.60212 15.3292 2.55825 15.098L2.54137 14.9833L7.68487 9.84146ZM12.528 6.57614C12.3527 6.27918 12.216 5.96105 12.1213 5.62946C12.3491 5.68514 12.6681 5.81508 13.0697 6.03614C13.9539 6.52889 15.0711 7.38614 16.1848 8.49989C16.9442 9.25927 17.5854 10.0203 18.0714 10.7105C17.4675 10.6692 16.8608 10.721 16.2726 10.8641C15.827 10.4939 15.3991 10.1031 14.9901 9.69296C13.8763 8.57921 13.0207 7.46208 12.5297 6.57614H12.528Z" fill="#4B8FAA"/>
<path d="M10.449 4.69121L6.30766 7.49288L9.7016 12.5097L13.9845 8.22674L10.449 4.69121ZM8.17087 1.91864L4.67497 5.49337L4.7162 5.53369L4.75836 5.57306L8.17087 1.91864ZM6.97275 1.04958L9.28531 -3.38348L9.21015 -3.42269L9.1337 -3.45933L6.97275 1.04958ZM5.48437 1.01583L2.99353 -3.31957L2.98403 -3.31411L2.97455 -3.30861L5.48437 1.01583ZM4.75875 2.52783L-0.240941 2.47144L-0.24101 2.47849L4.75875 2.52783ZM5.05068 4.28958L9.85884 2.91782L9.85687 2.91096L5.05068 4.28958ZM6.79725 8.34296L10.3328 11.8785L12.9837 9.22754L11.1819 5.93991L6.79725 8.34296ZM1.269 13.8712L4.80453 17.4067H4.80453L1.269 13.8712ZM0.901122 15.4203L5.80929 14.4664L5.809 14.465L0.901122 15.4203ZM1.50862 16.9441L5.88041 14.5177L5.87475 14.5076L1.50862 16.9441ZM4.2525 20.4339L0.71446 23.9669L0.716963 23.9694L4.2525 20.4339ZM7.74225 23.1778L10.1788 18.8116L10.1687 18.806L7.74225 23.1778ZM9.26606 23.7853L8.31218 28.6934L8.32047 28.695L8.32878 28.6966L9.26606 23.7853ZM10.8152 23.4174L14.3443 26.9593L14.3507 26.9529L10.8152 23.4174ZM20.2905 13.9421L24.8344 11.8558L21.8361 5.32544L16.755 10.4065L20.2905 13.9421ZM20.3749 15.5266L25.3487 16.0377L25.3498 16.0269L25.3509 16.0161L20.3749 15.5266ZM20.2517 17.5111L15.2519 17.4622L15.2517 17.4867V17.5111H20.2517ZM20.2517 17.7187H15.2517V22.7187H20.2517V17.7187ZM20.2567 17.7187L25.2392 17.3007L24.8549 12.7187H20.2567V17.7187ZM21.9383 19.2651V24.2651V19.2651ZM23.6199 17.7187V12.7187H19.0218L18.6374 17.3007L23.6199 17.7187ZM23.625 17.7187V22.7187H28.625V17.7187H23.625ZM23.625 17.6225L18.6265 17.5006L18.625 17.5615V17.6225H23.625ZM23.6182 17.4251L18.6231 17.6449L18.6284 17.7667L18.6397 17.8881L23.6182 17.4251ZM20.4795 11.529L15.8591 13.4399L16.4513 14.8718L17.7495 15.7179L20.4795 11.529ZM20.1234 10.7966L15.7563 13.2313L15.7615 13.2407L15.7668 13.25L20.1234 10.7966ZM13.8881 4.56296L16.3146 0.191183L16.3139 0.190839L13.8881 4.56296ZM12.3643 3.95546L13.3349 -0.949438L13.3183 -0.95273L13.3016 -0.955909L12.3643 3.95546ZM10.8152 4.32502L7.28602 0.783114L7.27965 0.789484L10.8152 4.32502ZM7.02 3.15052L10.4336 -0.502845L10.4195 -0.516046L10.4053 -0.529137L7.02 3.15052ZM9.23231 5.90452L12.7704 9.43754L15.6464 6.55743L13.4097 3.15687L9.23231 5.90452ZM8.04431 7.09421L3.61813 9.41993L6.77966 15.4367L11.5824 10.6272L8.04431 7.09421ZM6.67237 3.82383L11.4803 2.45141L11.4678 2.4075L11.4545 2.36383L6.67237 3.82383ZM6.45131 2.68814L9.19659 -1.49078L0.56084 -7.16391L1.47073 3.12845L6.45131 2.68814ZM7.68487 9.84146L11.9081 7.16478L8.5656 1.89111L4.14992 6.30534L7.68487 9.84146ZM10.3967 13.2721L6.9877 16.9299L6.9883 16.9304L10.3967 13.2721ZM11.5476 12.0369L14.9559 8.37863L14.9557 8.3784L11.5476 12.0369ZM8.90831 8.61633L5.37278 5.0808L2.58326 7.87031L4.64723 11.2323L8.90831 8.61633ZM10.7443 6.78033L15.3082 4.73795L12.3425 -1.88895L7.20878 3.2448L10.7443 6.78033ZM11.0531 7.39627L6.68009 9.82045L6.68431 9.82803L11.0531 7.39627ZM13.7987 10.886L17.3367 7.35299L17.3342 7.35048L13.7987 10.886ZM17.2884 13.6299L19.7409 9.27265L19.7264 9.26452L19.7119 9.25648L17.2884 13.6299ZM17.9044 13.9387L21.4403 17.4739L26.6096 12.3035L19.9164 9.36139L17.9044 13.9387ZM9.70143 22.1433L8.97401 27.0901L11.4604 27.4558L13.2373 25.6785L9.70143 22.1433ZM9.58668 22.1265L8.61988 27.0321L8.73907 27.0556L8.85926 27.0733L9.58668 22.1265ZM8.56068 21.7012L6.12681 26.0688L6.12968 26.0704L8.56068 21.7012ZM2.98181 16.1223L-1.39053 18.5477L-1.38976 18.5491L2.98181 16.1223ZM2.55825 15.098L-2.38855 15.8255L-2.37344 15.9282L-2.35407 16.0303L2.55825 15.098ZM2.54137 14.9833L-0.993582 11.4472L-2.77111 13.2241L-2.40542 15.7107L2.54137 14.9833ZM12.528 6.57614L8.22233 9.11804L9.67349 11.5761H12.528V6.57614ZM12.1213 5.62946L13.3086 0.77246L4.95065 -1.27059L7.31356 7.0026L12.1213 5.62946ZM13.0697 6.03614L15.5036 1.66851L15.4921 1.66214L15.4807 1.65584L13.0697 6.03614ZM18.0714 10.7105L17.7303 15.6989L28.2036 16.4151L22.1596 7.83181L18.0714 10.7105ZM16.2726 10.8641L13.0774 14.71L15.0113 16.3166L17.4543 15.7224L16.2726 10.8641ZM14.9901 9.69296L18.5307 6.1625L18.5256 6.15742L14.9901 9.69296ZM12.5297 6.57614L16.9028 4.15217L15.475 1.57614H12.5297V6.57614ZM14.5903 1.88954C13.6866 0.553694 12.6584 -0.731876 11.5834 -1.73577L4.75836 5.57306C5.11092 5.90229 5.66563 6.54384 6.30766 7.49288L14.5903 1.88954ZM11.6668 -1.65609C10.9619 -2.34545 10.1595 -2.92746 9.28531 -3.38348L4.66018 5.48264C4.66561 5.48547 4.67059 5.48909 4.67497 5.49337L11.6668 -1.65609ZM9.1337 -3.45933C8.3209 -3.84887 5.73399 -4.89406 2.99353 -3.31957L7.97521 5.35123C7.17596 5.81043 6.37085 5.88165 5.80352 5.82561C5.29312 5.77519 4.94923 5.62436 4.81179 5.55849L9.1337 -3.45933ZM2.97455 -3.30861C-0.126839 -1.50862 -0.232926 1.76129 -0.240936 2.47144L9.75843 2.58422C9.75763 2.65506 9.75393 3.00874 9.57564 3.48648C9.37077 4.03545 8.90107 4.81394 7.9942 5.34027L2.97455 -3.30861ZM-0.24101 2.47849C-0.252862 3.67951 -0.000757158 4.81318 0.244499 5.6682L9.85687 2.91096C9.80374 2.72573 9.77564 2.59585 9.76235 2.51813C9.75604 2.48123 9.75491 2.46669 9.75545 2.47259C9.75594 2.4779 9.75912 2.51414 9.7585 2.57717L-0.24101 2.47849ZM0.242537 5.66134C0.703847 7.27828 1.48257 9.04909 2.41257 10.746L11.1819 5.93991C10.4953 4.68707 10.059 3.61951 9.85883 2.91782L0.242537 5.66134ZM3.26171 4.80742L-2.26654 10.3357L4.80453 17.4067L10.3328 11.8785L3.26171 4.80742ZM-2.26654 10.3357C-4.54108 12.6102 -4.18975 15.4356 -4.00676 16.3757L5.809 14.465C5.83509 14.599 5.89373 14.9572 5.81322 15.4544C5.7232 16.0104 5.44896 16.7623 4.80453 17.4067L-2.26654 10.3357ZM-4.00705 16.3742C-3.77323 17.5773 -3.28039 18.623 -2.85751 19.3807L5.87475 14.5076C5.84241 14.4496 5.81726 14.4011 5.79827 14.3621C5.77918 14.3229 5.76834 14.2976 5.76357 14.2858C5.75868 14.2738 5.76238 14.2814 5.77058 14.3079C5.77866 14.3341 5.79397 14.3876 5.80929 14.4664L-4.00705 16.3742ZM-2.86315 19.3706C-1.99146 20.9411 -0.70568 22.5448 0.714461 23.9669L7.79053 16.9009C6.82792 15.9369 6.1832 15.0633 5.88039 14.5177L-2.86315 19.3706ZM0.716963 23.9694C2.14291 25.3954 3.74712 26.6789 5.31581 27.5495L10.1687 18.806C9.62125 18.5022 8.7482 17.8585 7.78803 16.8984L0.716963 23.9694ZM5.30567 27.5439C6.06342 27.9668 7.10907 28.4596 8.31218 28.6934L10.2199 18.8771C10.2988 18.8924 10.3523 18.9077 10.3785 18.9158C10.405 18.924 10.4126 18.9277 10.4006 18.9228C10.3888 18.918 10.3634 18.9072 10.3243 18.8881C10.2853 18.8691 10.2368 18.844 10.1788 18.8116L5.30567 27.5439ZM8.32878 28.6966C9.24595 28.8717 12.0671 29.2283 14.3443 26.9593L7.28603 19.8755C7.92895 19.2349 8.67886 18.9616 9.23445 18.872C9.7298 18.7922 10.0839 18.8511 10.2033 18.8739L8.32878 28.6966ZM14.3507 26.9529L23.826 17.4776L16.755 10.4065L7.27965 19.8819L14.3507 26.9529ZM15.7466 16.0284C15.631 15.7768 15.5483 15.5167 15.497 15.2629C15.4476 15.0189 15.437 14.8287 15.4349 14.7273C15.4331 14.6352 15.4383 14.5986 15.4332 14.6676C15.4276 14.7428 15.4184 14.8383 15.3989 15.0372L25.3509 16.0161C25.3834 15.685 25.7093 13.7612 24.8344 11.8558L15.7466 16.0284ZM15.4011 15.0156C15.347 15.5422 15.2627 16.3596 15.2519 17.4622L25.2514 17.5601C25.2575 16.938 25.3015 16.4966 25.3487 16.0377L15.4011 15.0156ZM15.2517 17.5111V17.7187H25.2517V17.5111H15.2517ZM20.2517 22.7187H20.2567V12.7187H20.2517V22.7187ZM15.2742 18.1367C15.4144 19.8077 16.1772 21.365 17.4115 22.5001L24.1806 15.1394C24.792 15.7017 25.1698 16.4731 25.2392 17.3007L15.2742 18.1367ZM17.4115 22.5001C18.6458 23.6352 20.2615 24.2651 21.9383 24.2651V14.2651C22.7689 14.2651 23.5692 14.5772 24.1806 15.1394L17.4115 22.5001ZM21.9383 24.2651C23.6152 24.2651 25.2309 23.6352 26.4652 22.5001L19.6961 15.1394C20.3075 14.5772 21.1077 14.2651 21.9383 14.2651V24.2651ZM26.4652 22.5001C27.6994 21.365 28.4623 19.8077 28.6024 18.1367L18.6374 17.3007C18.7069 16.4731 19.0847 15.7017 19.6961 15.1394L26.4652 22.5001ZM23.6199 22.7187H23.625V12.7187H23.6199V22.7187ZM28.625 17.7187V17.6225H18.625V17.7187H28.625ZM28.6235 17.7445C28.6299 17.4834 28.6209 17.2221 28.5968 16.962L18.6397 17.8881C18.6278 17.7593 18.6233 17.6299 18.6265 17.5006L28.6235 17.7445ZM28.6134 17.2053C28.468 13.8997 26.8317 9.70069 23.2095 7.34004L17.7495 15.7179C17.837 15.7749 18.0603 15.9715 18.281 16.4105C18.5019 16.8499 18.6086 17.3163 18.6231 17.6449L28.6134 17.2053ZM25.0999 9.61799C24.9192 9.18095 24.7122 8.75522 24.4801 8.34311L15.7668 13.25C15.8013 13.3114 15.8322 13.3748 15.8591 13.4399L25.0999 9.61799ZM24.4906 8.36185C23.6204 6.80105 22.3401 5.19965 20.9134 3.77298L13.8423 10.8441C14.8018 11.8035 15.4486 12.6794 15.7563 13.2313L24.4906 8.36185ZM20.9134 3.77298C19.4898 2.34942 17.8855 1.06309 16.3146 0.191183L11.4617 8.93473C12.0069 9.23732 12.8798 9.88149 13.8423 10.8441L20.9134 3.77298ZM16.3139 0.190839C15.5614 -0.226696 14.5249 -0.713966 13.3349 -0.949438L11.3937 8.86035C11.3184 8.84544 11.2679 8.83084 11.2445 8.82357C11.2208 8.81618 11.2156 8.81339 11.2298 8.81917C11.2437 8.82482 11.2711 8.83654 11.312 8.85642C11.3527 8.8762 11.4029 8.90209 11.4623 8.93507L16.3139 0.190839ZM13.3016 -0.955909C12.3705 -1.1336 9.55737 -1.48005 7.28603 0.783119L14.3443 7.86692C13.7043 8.50467 12.9579 8.77804 12.4033 8.86833C11.9081 8.94895 11.5527 8.8908 11.427 8.86682L13.3016 -0.955909ZM7.27965 0.789484L6.91346 1.15567L13.9845 8.22674L14.3507 7.86055L7.27965 0.789484ZM3.60636 6.80388C3.86376 7.04439 4.39819 7.65369 5.05494 8.65217L13.4097 3.15687C12.4903 1.7591 11.4621 0.458142 10.4336 -0.502845L3.60636 6.80388ZM5.69427 2.37149L4.50627 3.56118L11.5824 10.6272L12.7704 9.43754L5.69427 2.37149ZM12.4705 4.76848C11.9368 3.75275 11.6194 2.93845 11.4803 2.45141L1.86441 5.19625C2.24176 6.51821 2.8626 7.98203 3.61813 9.41993L12.4705 4.76848ZM11.4545 2.36383C11.4429 2.32605 11.4354 2.28718 11.4319 2.24784L1.47073 3.12845C1.53536 3.85953 1.67597 4.58189 1.89028 5.28383L11.4545 2.36383ZM3.70603 6.86707C3.65248 6.8319 3.61386 6.80401 3.59144 6.78735C3.56861 6.77039 3.55614 6.76027 3.55481 6.75919C3.55326 6.75792 3.55939 6.76288 3.57371 6.77534C3.58789 6.7877 3.60812 6.80571 3.63471 6.83017L10.4053 -0.529137C10.0923 -0.81706 9.67596 -1.17587 9.19659 -1.49078L3.70603 6.86707ZM3.46167 12.5181C4.50933 14.1711 5.72706 15.7549 6.9877 16.9299L13.8057 9.61443C13.3788 9.2166 12.6829 8.38731 11.9081 7.16478L3.46167 12.5181ZM6.9883 16.9304C7.54981 17.4536 8.20887 17.861 8.92786 18.1295L12.4258 8.76121C12.9371 8.95212 13.4058 9.24186 13.8051 9.61388L6.9883 16.9304ZM8.92786 18.1295C9.64684 18.3979 10.4117 18.5221 11.1786 18.495L10.8253 8.50126C11.3707 8.48198 11.9145 8.57031 12.4258 8.76121L8.92786 18.1295ZM11.1786 18.495C11.9457 18.4679 12.6998 18.29 13.398 17.9714L9.24706 8.87361C9.74355 8.64708 10.2798 8.52055 10.8253 8.50126L11.1786 18.495ZM13.398 17.9714C14.0962 17.6528 14.7248 17.1999 15.248 16.6383L7.93148 9.82157C8.30352 9.42226 8.75056 9.10014 9.24706 8.87361L13.398 17.9714ZM15.248 16.6383C15.7712 16.0768 16.1786 15.4178 16.4471 14.6988L7.07881 11.2008C7.26971 10.6896 7.55945 10.2209 7.93148 9.82157L15.248 16.6383ZM16.4471 14.6988C16.7155 13.9798 16.8397 13.215 16.8126 12.448L6.81887 12.8014C6.79958 12.256 6.88791 11.7121 7.07881 11.2008L16.4471 14.6988ZM16.8126 12.448C16.7855 11.681 16.6076 10.9269 16.289 10.2287L7.19122 14.3796C6.96468 13.8831 6.83815 13.3468 6.81887 12.8014L16.8126 12.448ZM16.289 10.2287C15.9704 9.53043 15.5175 8.90179 14.9559 8.37863L8.13917 15.6952C7.73987 15.3231 7.41776 14.8761 7.19122 14.3796L16.289 10.2287ZM14.9557 8.3784C14.6352 8.07984 13.9548 7.27974 13.1694 6.00038L4.64723 11.2323C5.70793 12.96 6.93103 14.5697 8.13942 15.6954L14.9557 8.3784ZM12.4438 12.1519L14.2798 10.3159L7.20878 3.2448L5.37278 5.0808L12.4438 12.1519ZM6.18047 8.82271C6.33313 9.16385 6.50048 9.49644 6.6801 9.82045L15.4261 4.97209C15.3763 4.8821 15.3377 4.80407 15.3082 4.73795L6.18047 8.82271ZM6.68431 9.82803C7.55516 11.3926 8.83656 12.995 10.2632 14.4216L17.3342 7.35048C16.3747 6.39095 15.729 5.51609 15.4219 4.9645L6.68431 9.82803ZM10.2606 14.419C11.6865 15.8469 13.2924 17.1319 14.865 18.0033L19.7119 9.25648C19.165 8.9534 18.2936 8.31125 17.3367 7.35299L10.2606 14.419ZM14.836 17.9871C15.177 18.1791 15.5291 18.3564 15.8924 18.516L19.9164 9.36139C19.8701 9.34105 19.8116 9.31246 19.7409 9.27265L14.836 17.9871ZM14.3685 10.4035L6.16554 18.6082L13.2373 25.6785L21.4403 17.4739L14.3685 10.4035ZM10.4289 17.1965L10.3141 17.1797L8.85926 27.0733L8.97401 27.0901L10.4289 17.1965ZM10.5535 17.2208C10.7011 17.2499 10.8129 17.2815 10.8836 17.3036C10.9564 17.3264 11.006 17.3455 11.0309 17.3555C11.0783 17.3747 11.0656 17.3731 10.9917 17.332L6.12968 26.0704C6.818 26.4534 7.678 26.8465 8.61988 27.0321L10.5535 17.2208ZM10.9946 17.3336C10.6155 17.1223 9.86143 16.5823 8.98109 15.7019L1.91003 22.773C3.25719 24.1202 4.73739 25.2946 6.12681 26.0688L10.9946 17.3336ZM8.98109 15.7019C8.09623 14.8171 7.56072 14.069 7.35338 13.6955L-1.38976 18.5491C-0.611597 19.9509 0.567391 21.4304 1.91003 22.773L8.98109 15.7019ZM7.35415 13.6969C7.31053 13.6183 7.30819 13.6038 7.32753 13.6516C7.33777 13.6769 7.35805 13.7293 7.38219 13.8069C7.40555 13.882 7.43985 14.0039 7.47057 14.1658L-2.35407 16.0303C-2.16875 17.0068 -1.75802 17.8853 -1.39053 18.5477L7.35415 13.6969ZM7.50504 14.3705L7.48817 14.2558L-2.40542 15.7107L-2.38855 15.8255L7.50504 14.3705ZM6.07633 18.5194L11.2198 13.3776L4.14992 6.30534L-0.993582 11.4472L6.07633 18.5194ZM16.8337 4.03425C16.8748 4.10391 16.9068 4.17854 16.9291 4.25631L7.31356 7.0026C7.52518 7.74355 7.83057 8.45445 8.22233 9.11804L16.8337 4.03425ZM10.934 10.4865C10.8201 10.4586 10.735 10.4315 10.6825 10.4134C10.6288 10.3949 10.5944 10.3808 10.5807 10.375C10.5558 10.3645 10.581 10.3737 10.6587 10.4164L15.4807 1.65584C14.8841 1.32744 14.1326 0.973896 13.3086 0.77246L10.934 10.4865ZM10.6358 10.4038C11.0149 10.615 11.7689 11.1551 12.6493 12.0354L19.7203 4.96436C18.3732 3.6172 16.893 2.44276 15.5036 1.66851L10.6358 10.4038ZM12.6493 12.0354C13.2324 12.6186 13.6825 13.1621 13.9833 13.5892L22.1596 7.83181C21.4883 6.87853 20.656 5.89998 19.7203 4.96436L12.6493 12.0354ZM18.4126 5.72217C17.2973 5.6459 16.177 5.74154 15.0908 6.00573L17.4543 15.7224C17.5445 15.7005 17.6376 15.6925 17.7303 15.6989L18.4126 5.72217ZM19.4677 7.01818C19.1422 6.74774 18.8295 6.4622 18.5307 6.16251L11.4494 13.2234C11.9686 13.7441 12.5118 14.2401 13.0774 14.71L19.4677 7.01818ZM18.5256 6.15742C17.6469 5.27873 17.1111 4.52789 16.9028 4.15217L8.15654 9.00011C8.93041 10.3963 10.1057 11.8797 11.4545 13.2285L18.5256 6.15742ZM12.5297 1.57614H12.528V11.5761H12.5297V1.57614Z" fill="#4B8FAA" mask="url(#path-1-inside-1_8_4)"/>
</svg>
