<svg width="28" height="28" viewBox="0 0 28 28" fill="none" xmlns="http://www.w3.org/2000/svg">
<path d="M10.4325 1.72441C8.77898 1.71879 7.16018 2.19843 5.77665 3.10391L11.2947 8.62191C11.4784 8.77871 11.629 8.9707 11.7374 9.18656C11.8458 9.40243 11.91 9.63781 11.926 9.87885C11.9421 10.1199 11.9098 10.3617 11.831 10.5901C11.7521 10.8184 11.6284 11.0287 11.4671 11.2085C11.2873 11.3698 11.077 11.4935 10.8487 11.5723C10.6203 11.6512 10.3785 11.6835 10.1375 11.6674C9.89643 11.6514 9.66104 11.5872 9.44517 11.4788C9.22931 11.3703 9.03732 11.2198 8.88053 11.036L3.19009 5.51804C2.20624 6.96577 1.69427 8.68237 1.72437 10.4325C1.73345 12.7392 2.65382 14.9489 4.28494 16.58C5.91606 18.2111 8.12573 19.1315 10.4325 19.1406C11.1873 19.1439 11.9399 19.0571 12.6741 18.8819L18.4508 24.6586C19.2626 25.4704 20.3636 25.9264 21.5116 25.9264C22.6596 25.9264 23.7606 25.4704 24.5723 24.6586C25.3841 23.8468 25.8401 22.7458 25.8401 21.5978C25.8401 20.4498 25.3841 19.3488 24.5723 18.5371L18.7957 12.7604C18.9708 12.0261 19.0576 11.2736 19.0543 10.5187C19.0773 9.37206 18.8712 8.23234 18.4482 7.1663C18.0252 6.10026 17.3937 5.12933 16.5908 4.31036C15.7879 3.49139 14.8297 2.84085 13.7722 2.39681C12.7148 1.95278 11.5794 1.72418 10.4325 1.72441ZM17.33 10.4325C17.3288 11.0452 17.2417 11.6546 17.0713 12.2431L16.8126 13.1915L17.5024 13.8813L23.2791 19.6579C23.5251 19.8908 23.7208 20.1716 23.8543 20.483C23.9877 20.7943 24.056 21.1297 24.055 21.4685C24.0647 21.8085 24.0004 22.1466 23.8664 22.4592C23.7324 22.7719 23.532 23.0516 23.2791 23.2791C23.0455 23.5243 22.7646 23.7195 22.4534 23.8529C22.1422 23.9863 21.8071 24.0551 21.4685 24.0551C21.1298 24.0551 20.7948 23.9863 20.4835 23.8529C20.1723 23.7195 19.8914 23.5243 19.6579 23.2791L13.8812 17.5024L13.1915 16.8127L12.2431 17.0714C11.6546 17.2418 11.0451 17.3289 10.4325 17.33C8.60038 17.3249 6.84055 16.6148 5.51799 15.347C4.84915 14.7176 4.31949 13.9552 3.96311 13.1088C3.60672 12.2624 3.43151 11.3507 3.44874 10.4325C3.44962 9.79151 3.53662 9.15353 3.7074 8.5357L7.50103 12.3293C7.82158 12.6782 8.20837 12.9597 8.63885 13.1575C9.06932 13.3553 9.53487 13.4654 10.0083 13.4815C10.4818 13.4975 10.9538 13.4192 11.3966 13.251C11.8395 13.0828 12.2445 12.8281 12.5879 12.5018C12.9143 12.1583 13.1689 11.7533 13.3371 11.3105C13.5054 10.8676 13.5837 10.3956 13.5677 9.92217C13.5516 9.44869 13.4415 8.98315 13.2437 8.55267C13.0459 8.1222 12.7643 7.73541 12.4155 7.41485L8.62187 3.62123C9.17965 3.44557 9.76148 3.35829 10.3462 3.36257C12.1783 3.36766 13.9382 4.07776 15.2607 5.3456C16.5837 6.70894 17.3256 8.53277 17.33 10.4325Z" fill="#4B8FAA"/>
</svg>
