<svg width="28" height="29" viewBox="0 0 28 29" fill="none" xmlns="http://www.w3.org/2000/svg">
<path d="M13.0355 11.1361H23.3749C23.9451 11.1361 24.2301 11.1361 24.3979 11.32C24.5646 11.5039 24.5428 11.7948 24.4991 12.3741L23.7853 21.8342C23.6335 23.848 23.5577 24.855 22.9082 25.4665C22.2599 26.0791 21.2691 26.0791 19.2874 26.0791H14.1102C12.1297 26.0791 11.1389 26.0791 10.4894 25.4665C9.52618 24.5561 9.68135 22.7112 9.5871 21.4813" stroke="#4B8FAA" stroke-width="2" stroke-linecap="round" stroke-linejoin="round"/>
<path d="M13.0355 11.0326V17.3018C13.0355 19.2719 13.0355 20.2559 12.3619 20.8697C11.6883 21.4812 10.6055 21.4812 8.43764 21.4812C6.26975 21.4812 5.18695 21.4812 4.51337 20.8697C3.83978 20.257 3.83978 19.2719 3.83978 17.3018V16.2557C3.83978 13.3016 3.83978 11.8234 4.85016 10.905C5.85939 9.98657 7.48588 9.98657 10.7366 9.98657H11.886C12.4274 9.98657 12.6987 9.98657 12.8677 10.1395C13.0355 10.2923 13.0355 10.5406 13.0355 11.0326Z" stroke="#4B8FAA" stroke-width="2" stroke-linecap="round" stroke-linejoin="round"/>
<path d="M22.2312 11.1361C22.2312 6.69226 19.6449 3.08984 16.4551 3.08984C13.5447 3.08984 11.1366 6.08765 10.7366 9.98663M3.83978 16.8834H13.0355M13.0355 15.7339H23.3807" stroke="#4B8FAA" stroke-width="2" stroke-linecap="round" stroke-linejoin="round"/>
</svg>
