<svg width="28" height="28" viewBox="0 0 28 28" fill="none" xmlns="http://www.w3.org/2000/svg">
<path d="M1.99883 1.56323C1.53793 1.56323 1.17493 1.92624 1.17493 2.38714C1.17493 2.84803 1.53793 3.21115 1.99883 3.21115C2.45973 3.21115 2.82279 2.84809 2.82279 2.38719C2.82279 1.92629 2.45973 1.56323 1.99883 1.56323ZM3.71008 2.98097C3.46217 3.68768 2.7864 4.19979 1.99883 4.19979C1.72887 4.19979 1.47217 4.13925 1.24112 4.03165L3.25792 6.72082L4.2996 6.26515L3.71008 2.98097ZM4.61075 7.20819L3.7248 7.59577L9.7188 22.8608L10.5871 22.4265L4.61075 7.20819ZM16.0949 17.8909V18.6599H20.3794V17.8909H16.0949ZM16.0949 19.6487V22.1754H20.3794V19.6487H16.0949ZM8.02571 21.4063L7.7799 22.0208C8.08402 22.1905 8.35798 22.4093 8.5907 22.6684L8.1174 21.4063H8.02571ZM11.2606 21.4063L11.549 22.1754H15.1063V21.4063H11.2606ZM6.26281 22.6148C5.98121 22.6138 5.7022 22.6685 5.44184 22.7758C5.18148 22.8831 4.94493 23.0409 4.7458 23.24C4.54668 23.4391 4.38892 23.6757 4.28162 23.936C4.17431 24.1964 4.11958 24.4754 4.12058 24.757C4.11959 25.0386 4.17432 25.3176 4.28163 25.5779C4.38894 25.8383 4.5467 26.0749 4.74582 26.274C4.94494 26.4731 5.1815 26.6308 5.44185 26.7381C5.70221 26.8454 5.98122 26.9002 6.26281 26.8992C6.54442 26.9002 6.82343 26.8454 7.08379 26.7381C7.34415 26.6308 7.5807 26.4731 7.77983 26.2739C7.97895 26.0748 8.13671 25.8383 8.24401 25.5779C8.35132 25.3176 8.40605 25.0385 8.40505 24.7569C8.40604 24.4753 8.3513 24.1963 8.244 23.936C8.13669 23.6756 7.97893 23.4391 7.77981 23.24C7.58068 23.0408 7.34413 22.8831 7.08378 22.7758C6.82342 22.6685 6.54441 22.6138 6.26281 22.6148ZM11.7007 23.1641V24.8119H24.7736V23.164L11.7007 23.1641ZM10.712 23.4696L9.33536 24.158C9.37404 24.3553 9.39359 24.5559 9.39374 24.757C9.39374 24.7754 9.39266 24.7935 9.39234 24.8119H10.712V23.4696ZM11.5119 25.8006L11.1274 26.5696H25.3469L24.9624 25.8006H11.5119Z" fill="#4B8FAA"/>
</svg>
