<svg width="28" height="28" viewBox="0 0 28 28" fill="none" xmlns="http://www.w3.org/2000/svg">
<path d="M13.795 24.1413C12.5688 24.1413 11.4717 23.8251 10.5037 23.1929C9.53577 22.5606 8.74601 21.7271 8.13443 20.6925L5.40302 22.2445L4.25344 20.2614L7.21362 18.5371C7.15614 18.3263 7.10824 18.1109 7.06992 17.891C7.0316 17.671 6.99328 17.4553 6.95496 17.2438H3.44873V14.9446H6.95496C6.99328 14.7147 7.0316 14.4898 7.06992 14.2698C7.10824 14.0498 7.15614 13.8341 7.21362 13.6226L4.25344 11.8982L5.40302 9.91518L8.10454 11.4959C8.25782 11.2276 8.43524 10.9644 8.6368 10.7061C8.83836 10.4478 9.04414 10.2129 9.25413 10.0014C9.21581 9.86728 9.19665 9.73316 9.19665 9.59904V9.19669C9.19665 8.73686 9.26371 8.29618 9.39782 7.87467C9.53194 7.45315 9.71396 7.06038 9.94388 6.69635L8.04706 4.79953L9.65648 3.16138L11.6683 5.11567C11.994 4.94323 12.3342 4.81409 12.6891 4.72826C13.0439 4.64242 13.4126 4.59912 13.795 4.59836C14.1774 4.59759 14.551 4.64549 14.9158 4.74205C15.2806 4.83862 15.6255 4.97274 15.9504 5.14441L17.9335 3.16138L19.5429 4.79953L17.6461 6.69635C17.876 7.06038 18.0534 7.45315 18.1783 7.87467C18.3033 8.29618 18.3653 8.73686 18.3646 9.19669V9.58525C18.3646 9.7094 18.3454 9.83854 18.3071 9.97266C18.5179 10.1834 18.7236 10.4229 18.9244 10.6911C19.1252 10.9594 19.3026 11.2276 19.4567 11.4959L22.1869 9.94392L23.3365 11.9269L20.3476 13.6226C20.4051 13.8333 20.4576 14.0491 20.5051 14.2698C20.5526 14.4905 20.5959 14.7155 20.635 14.9446H24.1412V17.2438H20.635C20.5967 17.4737 20.5584 17.699 20.52 17.9197C20.4817 18.1404 20.4338 18.3558 20.3763 18.5658L23.3365 20.2902L22.1869 22.2732L19.4567 20.6925C18.8436 21.7271 18.053 22.5606 17.0851 23.1929C16.1171 23.8251 15.0204 24.1413 13.795 24.1413ZM11.6108 8.44946C11.9365 8.31534 12.2863 8.21495 12.6603 8.14827C13.0343 8.08159 13.4126 8.04787 13.795 8.04711C14.1774 8.04634 14.5464 8.07508 14.902 8.13332C15.2576 8.19157 15.5975 8.28737 15.9217 8.42072C15.7684 7.98005 15.5002 7.61601 15.117 7.32862C14.7338 7.04122 14.2931 6.89752 13.795 6.89752C13.2968 6.89752 12.8466 7.0462 12.4442 7.34356C12.0419 7.64092 11.7641 8.00955 11.6108 8.44946ZM13.795 21.8421C15.1936 21.8421 16.3099 21.2577 17.1437 20.089C17.9775 18.9202 18.3941 17.5886 18.3933 16.0942C18.3933 14.753 18.0055 13.4597 17.2299 12.2143C16.4543 10.969 15.3094 10.3463 13.795 10.3463C12.3005 10.3463 11.1605 10.9644 10.375 12.2006C9.58942 13.4367 9.19665 14.7346 9.19665 16.0942C9.19665 17.5886 9.61356 18.9202 10.4474 20.089C11.2812 21.2577 12.3971 21.8421 13.795 21.8421ZM12.6454 19.5429V12.6454H14.9446V19.5429H12.6454Z" fill="#4B8FAA"/>
</svg>
