<svg width="28" height="28" viewBox="0 0 28 28" fill="none" xmlns="http://www.w3.org/2000/svg">
<path d="M9.48749 16.106C9.71624 16.106 9.93562 16.0151 10.0974 15.8534C10.2591 15.6916 10.35 15.4723 10.35 15.2435V13.7999H17.25V15.4484C17.25 15.6771 17.3409 15.8965 17.5026 16.0582C17.6644 16.22 17.8837 16.3109 18.1125 16.3109C18.3412 16.3109 18.5606 16.22 18.7224 16.0582C18.8841 15.8965 18.975 15.6771 18.975 15.4484V3.4499C18.975 3.22115 18.8841 3.00177 18.7224 2.84002C18.5606 2.67827 18.3412 2.5874 18.1125 2.5874C17.8837 2.5874 17.6644 2.67827 17.5026 2.84002C17.3409 3.00177 17.25 3.22115 17.25 3.4499V5.1749H10.35V3.4499C10.35 3.22115 10.2591 3.00177 10.0974 2.84002C9.93562 2.67827 9.71624 2.5874 9.48749 2.5874C9.25875 2.5874 9.03937 2.67827 8.87761 2.84002C8.71586 3.00177 8.62499 3.22115 8.62499 3.4499V15.2435C8.62499 15.4723 8.71586 15.6916 8.87761 15.8534C9.03937 16.0151 9.25875 16.106 9.48749 16.106ZM10.35 12.0749V10.3499H17.25V12.0749H10.35ZM17.25 6.8999V8.6249H10.35V6.8999H17.25ZM2.58749 18.1124C2.58749 17.8837 2.67836 17.6643 2.84011 17.5025C3.00186 17.3408 3.22124 17.2499 3.44999 17.2499C5.00465 17.2499 5.84235 17.8084 6.51618 18.2569C7.11562 18.6579 7.59215 18.9749 8.62499 18.9749C9.65784 18.9749 10.1344 18.6579 10.7338 18.2569C11.4066 17.8084 12.2432 17.2499 13.7989 17.2499C15.3547 17.2499 16.1924 17.8084 16.8651 18.2569C17.4667 18.6579 17.9432 18.9749 18.975 18.9749C20.0068 18.9749 20.4844 18.6579 21.0838 18.2569C21.7576 17.8084 22.5932 17.2499 24.15 17.2499C24.3787 17.2499 24.5981 17.3408 24.7599 17.5025C24.9216 17.6643 25.0125 17.8837 25.0125 18.1124C25.0125 18.3412 24.9216 18.5605 24.7599 18.7223C24.5981 18.884 24.3787 18.9749 24.15 18.9749C23.1172 18.9749 22.6406 19.2919 22.0412 19.6929C21.3674 20.1414 20.5318 20.6999 18.975 20.6999C17.4182 20.6999 16.5816 20.1414 15.9088 19.6929C15.3094 19.2919 14.8318 18.9749 13.8 18.9749C12.7682 18.9749 12.2906 19.2919 11.6912 19.6929C11.0184 20.1414 10.1818 20.6999 8.62607 20.6999C7.07034 20.6999 6.23371 20.1414 5.55988 19.6929C4.95937 19.2919 4.48284 18.9749 3.44999 18.9749C3.22124 18.9749 3.00186 18.884 2.84011 18.7223C2.67836 18.5605 2.58749 18.3412 2.58749 18.1124ZM25.0125 22.4249C25.0125 22.6537 24.9216 22.873 24.7599 23.0348C24.5981 23.1965 24.3787 23.2874 24.15 23.2874C23.1172 23.2874 22.6406 23.6044 22.0412 24.0054C21.3674 24.4539 20.5318 25.0124 18.975 25.0124C17.4182 25.0124 16.5816 24.4539 15.9088 24.0054C15.3094 23.6044 14.8318 23.2874 13.8 23.2874C12.7682 23.2874 12.2906 23.6044 11.6912 24.0054C11.0184 24.4539 10.1818 25.0124 8.62607 25.0124C7.07034 25.0124 6.23371 24.4539 5.55988 24.0054C4.95937 23.6044 4.48284 23.2874 3.44999 23.2874C3.22124 23.2874 3.00186 23.1965 2.84011 23.0348C2.67836 22.873 2.58749 22.6537 2.58749 22.4249C2.58749 22.1962 2.67836 21.9768 2.84011 21.815C3.00186 21.6533 3.22124 21.5624 3.44999 21.5624C5.00465 21.5624 5.84235 22.1209 6.51618 22.5694C7.11562 22.9704 7.59215 23.2874 8.62499 23.2874C9.65784 23.2874 10.1344 22.9704 10.7338 22.5694C11.4066 22.1209 12.2432 21.5624 13.7989 21.5624C15.3547 21.5624 16.1924 22.1209 16.8651 22.5694C17.4667 22.9704 17.9432 23.2874 18.975 23.2874C20.0068 23.2874 20.4844 22.9704 21.0838 22.5694C21.7576 22.1209 22.5932 21.5624 24.15 21.5624C24.3787 21.5624 24.5981 21.6533 24.7599 21.815C24.9216 21.9768 25.0125 22.1962 25.0125 22.4249Z" fill="#4B8FAA"/>
</svg>
