<svg width="28" height="28" viewBox="0 0 28 28" fill="none" xmlns="http://www.w3.org/2000/svg">
<path d="M6.38711 20.6923H21.2029C22.2871 20.6923 23.3269 20.2616 24.0935 19.4949C24.8602 18.7283 25.2909 17.6885 25.2909 16.6044V13.7948C25.2909 13.185 25.0486 12.6002 24.6175 12.169C24.1863 11.7378 23.6015 11.4956 22.9917 11.4956C22.3819 11.4956 21.7971 11.7378 21.3659 12.169C20.9348 12.6002 20.6925 13.185 20.6925 13.7948V15.1743C20.6925 15.4182 20.5956 15.6521 20.4232 15.8246C20.2507 15.997 20.0168 16.0939 19.7729 16.0939H7.81719C7.57328 16.0939 7.33936 15.997 7.16689 15.8246C6.99442 15.6521 6.89753 15.4182 6.89753 15.1743V13.7948C6.89753 13.185 6.65529 12.6002 6.22412 12.169C5.79294 11.7378 5.20814 11.4956 4.59836 11.4956C3.98858 11.4956 3.40378 11.7378 2.9726 12.169C2.54143 12.6002 2.29919 13.185 2.29919 13.7948V16.6044C2.29919 17.6885 2.72988 18.7283 3.49652 19.4949C4.26315 20.2616 5.30293 20.6923 6.38711 20.6923Z" stroke="#4B8FAA" stroke-width="2"/>
<path d="M22.9917 11.4957C22.9917 10.4266 22.9917 9.8932 22.9032 9.44946C22.7258 8.55739 22.2878 7.73797 21.6447 7.09483C21.0016 6.45169 20.1821 6.01372 19.2901 5.83632C18.8463 5.7478 18.3129 5.7478 17.2438 5.7478H10.3463C9.27719 5.7478 8.74379 5.7478 8.30005 5.83632C7.40798 6.01372 6.58855 6.45169 5.94541 7.09483C5.30227 7.73797 4.86431 8.55739 4.68691 9.44946C4.59839 9.8932 4.59839 10.4266 4.59839 11.4957" stroke="#4B8FAA" stroke-width="2"/>
<path d="M22.9917 21.842V20.6924M4.59839 21.842V20.6924" stroke="#4B8FAA" stroke-width="2" stroke-linecap="round"/>
</svg>
