<svg width="27" height="27" viewBox="0 0 27 27" fill="none" xmlns="http://www.w3.org/2000/svg">
<g clip-path="url(#clip0_28_68)">
<path d="M24.1072 0.964233H2.89287C2.38138 0.964233 1.89084 1.16742 1.52916 1.5291C1.16748 1.89078 0.964294 2.38132 0.964294 2.8928V12.5357C0.964294 13.0472 1.16748 13.5377 1.52916 13.8994C1.89084 14.261 2.38138 14.4642 2.89287 14.4642H24.1072C24.6186 14.4642 25.1092 14.261 25.4709 13.8994C25.8325 13.5377 26.0357 13.0472 26.0357 12.5357V2.8928C26.0357 2.38132 25.8325 1.89078 25.4709 1.5291C25.1092 1.16742 24.6186 0.964233 24.1072 0.964233Z" stroke="#4B8FAA" stroke-width="2.5" stroke-linecap="round" stroke-linejoin="round"/>
<path d="M21.2143 14.4642V10.607C21.2143 10.0955 21.0111 9.60501 20.6494 9.24333C20.2878 8.88166 19.7972 8.67847 19.2857 8.67847H7.7143C7.20281 8.67847 6.71227 8.88166 6.35059 9.24333C5.98892 9.60501 5.78573 10.0955 5.78573 10.607V14.4642M4.82144 24.107H5.0143C5.73038 24.107 6.41714 23.8226 6.92349 23.3162C7.42984 22.8099 7.7143 22.1231 7.7143 21.407V19.2856M22.1786 24.107H21.9857C21.2696 24.107 20.5829 23.8226 20.0765 23.3162C19.5702 22.8099 19.2857 22.1231 19.2857 21.407V19.2856M13.5 26.0356V19.2856" stroke="#4B8FAA" stroke-width="2.5" stroke-linecap="round" stroke-linejoin="round"/>
</g>
<defs>
<clipPath id="clip0_28_68">
<rect width="27" height="27" fill="white"/>
</clipPath>
</defs>
</svg>
